<?xml version="1.0" encoding="utf-8" standalone="no"?>
<!DOCTYPE svg PUBLIC "-//W3C//DTD SVG 1.1//EN"
  "http://www.w3.org/Graphics/SVG/1.1/DTD/svg11.dtd">
<svg xmlns:xlink="http://www.w3.org/1999/xlink" width="684pt" height="457.92pt" viewBox="0 0 684 457.92" xmlns="http://www.w3.org/2000/svg" version="1.1">
 <metadata>
  <rdf:RDF xmlns:dc="http://purl.org/dc/elements/1.1/" xmlns:cc="http://creativecommons.org/ns#" xmlns:rdf="http://www.w3.org/1999/02/22-rdf-syntax-ns#">
   <cc:Work>
    <dc:type rdf:resource="http://purl.org/dc/dcmitype/StillImage"/>
    <dc:date>2025-08-26T05:53:40.178451</dc:date>
    <dc:format>image/svg+xml</dc:format>
    <dc:creator>
     <cc:Agent>
      <dc:title>Matplotlib v3.7.0, https://matplotlib.org/</dc:title>
     </cc:Agent>
    </dc:creator>
   </cc:Work>
  </rdf:RDF>
 </metadata>
 <defs>
  <style type="text/css">*{stroke-linejoin: round; stroke-linecap: butt}</style>
 </defs>
 <g id="figure_1">
  <g id="patch_1">
   <path d="M 0 457.92 
L 684 457.92 
L 684 0 
L 0 0 
z
" style="fill: #ffffff"/>
  </g>
  <g id="axes_1">
   <g id="patch_2">
    <path d="M 127.728 126.9504 
L 422.352 126.9504 
Q 455.832 126.9504 455.832 104.7744 
L 455.832 73.728 
Q 455.832 51.552 422.352 51.552 
L 127.728 51.552 
Q 94.248 51.552 94.248 73.728 
L 94.248 104.7744 
Q 94.248 126.9504 127.728 126.9504 
z
" clip-path="url(#p09e9316281)" style="fill: #1f77b4; stroke: #000000; stroke-linejoin: miter"/>
   </g>
   <g id="patch_3">
    <path d="M 60.768 237.8304 
L 288.432 237.8304 
Q 321.912 237.8304 321.912 215.6544 
L 321.912 189.0432 
Q 321.912 166.8672 288.432 166.8672 
L 60.768 166.8672 
Q 27.288 166.8672 27.288 189.0432 
L 27.288 215.6544 
Q 27.288 237.8304 60.768 237.8304 
z
" clip-path="url(#p09e9316281)" style="fill: #1f77b4; stroke: #000000; stroke-linejoin: miter"/>
   </g>
   <g id="patch_4">
    <path d="M 408.96 237.8304 
L 636.624 237.8304 
Q 670.104 237.8304 670.104 215.6544 
L 670.104 189.0432 
Q 670.104 166.8672 636.624 166.8672 
L 408.96 166.8672 
Q 375.48 166.8672 375.48 189.0432 
L 375.48 215.6544 
Q 375.48 237.8304 408.96 237.8304 
z
" clip-path="url(#p09e9316281)" style="fill: #1f77b4; stroke: #000000; stroke-linejoin: miter"/>
   </g>
   <g id="patch_5">
    <path d="M 60.768 348.7104 
L 288.432 348.7104 
Q 321.912 348.7104 321.912 326.5344 
L 321.912 299.9232 
Q 321.912 277.7472 288.432 277.7472 
L 60.768 277.7472 
Q 27.288 277.7472 27.288 299.9232 
L 27.288 326.5344 
Q 27.288 348.7104 60.768 348.7104 
z
" clip-path="url(#p09e9316281)" style="fill: #1f77b4; stroke: #000000; stroke-linejoin: miter"/>
   </g>
   <g id="patch_6">
    <path d="M 408.96 348.7104 
L 636.624 348.7104 
Q 670.104 348.7104 670.104 326.5344 
L 670.104 299.9232 
Q 670.104 277.7472 636.624 277.7472 
L 408.96 277.7472 
Q 375.48 277.7472 375.48 299.9232 
L 375.48 326.5344 
Q 375.48 348.7104 408.96 348.7104 
z
" clip-path="url(#p09e9316281)" style="fill: #1f77b4; stroke: #000000; stroke-linejoin: miter"/>
   </g>
   <g id="text_1">
    <!-- AI lowers run-cost → more entrants -->
    <g transform="translate(178.368906 86.127716) scale(0.11 -0.11)">
     <defs>
      <path id="DejaVuSans-41" d="M 2188 4044 
L 1331 1722 
L 3047 1722 
L 2188 4044 
z
M 1831 4666 
L 2547 4666 
L 4325 0 
L 3669 0 
L 3244 1197 
L 1141 1197 
L 716 0 
L 50 0 
L 1831 4666 
z
" transform="scale(0.015625)"/>
      <path id="DejaVuSans-49" d="M 628 4666 
L 1259 4666 
L 1259 0 
L 628 0 
L 628 4666 
z
" transform="scale(0.015625)"/>
      <path id="DejaVuSans-20" transform="scale(0.015625)"/>
      <path id="DejaVuSans-6c" d="M 603 4863 
L 1178 4863 
L 1178 0 
L 603 0 
L 603 4863 
z
" transform="scale(0.015625)"/>
      <path id="DejaVuSans-6f" d="M 1959 3097 
Q 1497 3097 1228 2736 
Q 959 2375 959 1747 
Q 959 1119 1226 758 
Q 1494 397 1959 397 
Q 2419 397 2687 759 
Q 2956 1122 2956 1747 
Q 2956 2369 2687 2733 
Q 2419 3097 1959 3097 
z
M 1959 3584 
Q 2709 3584 3137 3096 
Q 3566 2609 3566 1747 
Q 3566 888 3137 398 
Q 2709 -91 1959 -91 
Q 1206 -91 779 398 
Q 353 888 353 1747 
Q 353 2609 779 3096 
Q 1206 3584 1959 3584 
z
" transform="scale(0.015625)"/>
      <path id="DejaVuSans-77" d="M 269 3500 
L 844 3500 
L 1563 769 
L 2278 3500 
L 2956 3500 
L 3675 769 
L 4391 3500 
L 4966 3500 
L 4050 0 
L 3372 0 
L 2619 2869 
L 1863 0 
L 1184 0 
L 269 3500 
z
" transform="scale(0.015625)"/>
      <path id="DejaVuSans-65" d="M 3597 1894 
L 3597 1613 
L 953 1613 
Q 991 1019 1311 708 
Q 1631 397 2203 397 
Q 2534 397 2845 478 
Q 3156 559 3463 722 
L 3463 178 
Q 3153 47 2828 -22 
Q 2503 -91 2169 -91 
Q 1331 -91 842 396 
Q 353 884 353 1716 
Q 353 2575 817 3079 
Q 1281 3584 2069 3584 
Q 2775 3584 3186 3129 
Q 3597 2675 3597 1894 
z
M 3022 2063 
Q 3016 2534 2758 2815 
Q 2500 3097 2075 3097 
Q 1594 3097 1305 2825 
Q 1016 2553 972 2059 
L 3022 2063 
z
" transform="scale(0.015625)"/>
      <path id="DejaVuSans-72" d="M 2631 2963 
Q 2534 3019 2420 3045 
Q 2306 3072 2169 3072 
Q 1681 3072 1420 2755 
Q 1159 2438 1159 1844 
L 1159 0 
L 581 0 
L 581 3500 
L 1159 3500 
L 1159 2956 
Q 1341 3275 1631 3429 
Q 1922 3584 2338 3584 
Q 2397 3584 2469 3576 
Q 2541 3569 2628 3553 
L 2631 2963 
z
" transform="scale(0.015625)"/>
      <path id="DejaVuSans-73" d="M 2834 3397 
L 2834 2853 
Q 2591 2978 2328 3040 
Q 2066 3103 1784 3103 
Q 1356 3103 1142 2972 
Q 928 2841 928 2578 
Q 928 2378 1081 2264 
Q 1234 2150 1697 2047 
L 1894 2003 
Q 2506 1872 2764 1633 
Q 3022 1394 3022 966 
Q 3022 478 2636 193 
Q 2250 -91 1575 -91 
Q 1294 -91 989 -36 
Q 684 19 347 128 
L 347 722 
Q 666 556 975 473 
Q 1284 391 1588 391 
Q 1994 391 2212 530 
Q 2431 669 2431 922 
Q 2431 1156 2273 1281 
Q 2116 1406 1581 1522 
L 1381 1569 
Q 847 1681 609 1914 
Q 372 2147 372 2553 
Q 372 3047 722 3315 
Q 1072 3584 1716 3584 
Q 2034 3584 2315 3537 
Q 2597 3491 2834 3397 
z
" transform="scale(0.015625)"/>
      <path id="DejaVuSans-75" d="M 544 1381 
L 544 3500 
L 1119 3500 
L 1119 1403 
Q 1119 906 1312 657 
Q 1506 409 1894 409 
Q 2359 409 2629 706 
Q 2900 1003 2900 1516 
L 2900 3500 
L 3475 3500 
L 3475 0 
L 2900 0 
L 2900 538 
Q 2691 219 2414 64 
Q 2138 -91 1772 -91 
Q 1169 -91 856 284 
Q 544 659 544 1381 
z
M 1991 3584 
L 1991 3584 
z
" transform="scale(0.015625)"/>
      <path id="DejaVuSans-6e" d="M 3513 2113 
L 3513 0 
L 2938 0 
L 2938 2094 
Q 2938 2591 2744 2837 
Q 2550 3084 2163 3084 
Q 1697 3084 1428 2787 
Q 1159 2491 1159 1978 
L 1159 0 
L 581 0 
L 581 3500 
L 1159 3500 
L 1159 2956 
Q 1366 3272 1645 3428 
Q 1925 3584 2291 3584 
Q 2894 3584 3203 3211 
Q 3513 2838 3513 2113 
z
" transform="scale(0.015625)"/>
      <path id="DejaVuSans-2d" d="M 313 2009 
L 1997 2009 
L 1997 1497 
L 313 1497 
L 313 2009 
z
" transform="scale(0.015625)"/>
      <path id="DejaVuSans-63" d="M 3122 3366 
L 3122 2828 
Q 2878 2963 2633 3030 
Q 2388 3097 2138 3097 
Q 1578 3097 1268 2742 
Q 959 2388 959 1747 
Q 959 1106 1268 751 
Q 1578 397 2138 397 
Q 2388 397 2633 464 
Q 2878 531 3122 666 
L 3122 134 
Q 2881 22 2623 -34 
Q 2366 -91 2075 -91 
Q 1284 -91 818 406 
Q 353 903 353 1747 
Q 353 2603 823 3093 
Q 1294 3584 2113 3584 
Q 2378 3584 2631 3529 
Q 2884 3475 3122 3366 
z
" transform="scale(0.015625)"/>
      <path id="DejaVuSans-74" d="M 1172 4494 
L 1172 3500 
L 2356 3500 
L 2356 3053 
L 1172 3053 
L 1172 1153 
Q 1172 725 1289 603 
Q 1406 481 1766 481 
L 2356 481 
L 2356 0 
L 1766 0 
Q 1100 0 847 248 
Q 594 497 594 1153 
L 594 3053 
L 172 3053 
L 172 3500 
L 594 3500 
L 594 4494 
L 1172 4494 
z
" transform="scale(0.015625)"/>
      <path id="DejaVuSans-2192" d="M 5050 2147 
L 5050 1866 
L 3822 638 
L 3447 1013 
L 4175 1741 
L 366 1741 
L 366 2272 
L 4175 2272 
L 3447 3000 
L 3822 3375 
L 5050 2147 
z
" transform="scale(0.015625)"/>
      <path id="DejaVuSans-6d" d="M 3328 2828 
Q 3544 3216 3844 3400 
Q 4144 3584 4550 3584 
Q 5097 3584 5394 3201 
Q 5691 2819 5691 2113 
L 5691 0 
L 5113 0 
L 5113 2094 
Q 5113 2597 4934 2840 
Q 4756 3084 4391 3084 
Q 3944 3084 3684 2787 
Q 3425 2491 3425 1978 
L 3425 0 
L 2847 0 
L 2847 2094 
Q 2847 2600 2669 2842 
Q 2491 3084 2119 3084 
Q 1678 3084 1418 2786 
Q 1159 2488 1159 1978 
L 1159 0 
L 581 0 
L 581 3500 
L 1159 3500 
L 1159 2956 
Q 1356 3278 1631 3431 
Q 1906 3584 2284 3584 
Q 2666 3584 2933 3390 
Q 3200 3197 3328 2828 
z
" transform="scale(0.015625)"/>
      <path id="DejaVuSans-61" d="M 2194 1759 
Q 1497 1759 1228 1600 
Q 959 1441 959 1056 
Q 959 750 1161 570 
Q 1363 391 1709 391 
Q 2188 391 2477 730 
Q 2766 1069 2766 1631 
L 2766 1759 
L 2194 1759 
z
M 3341 1997 
L 3341 0 
L 2766 0 
L 2766 531 
Q 2569 213 2275 61 
Q 1981 -91 1556 -91 
Q 1019 -91 701 211 
Q 384 513 384 1019 
Q 384 1609 779 1909 
Q 1175 2209 1959 2209 
L 2766 2209 
L 2766 2266 
Q 2766 2663 2505 2880 
Q 2244 3097 1772 3097 
Q 1472 3097 1187 3025 
Q 903 2953 641 2809 
L 641 3341 
Q 956 3463 1253 3523 
Q 1550 3584 1831 3584 
Q 2591 3584 2966 3190 
Q 3341 2797 3341 1997 
z
" transform="scale(0.015625)"/>
     </defs>
     <use xlink:href="#DejaVuSans-41"/>
     <use xlink:href="#DejaVuSans-49" x="68.408203"/>
     <use xlink:href="#DejaVuSans-20" x="97.900391"/>
     <use xlink:href="#DejaVuSans-6c" x="129.6875"/>
     <use xlink:href="#DejaVuSans-6f" x="157.470703"/>
     <use xlink:href="#DejaVuSans-77" x="218.652344"/>
     <use xlink:href="#DejaVuSans-65" x="300.439453"/>
     <use xlink:href="#DejaVuSans-72" x="361.962891"/>
     <use xlink:href="#DejaVuSans-73" x="403.076172"/>
     <use xlink:href="#DejaVuSans-20" x="455.175781"/>
     <use xlink:href="#DejaVuSans-72" x="486.962891"/>
     <use xlink:href="#DejaVuSans-75" x="528.076172"/>
     <use xlink:href="#DejaVuSans-6e" x="591.455078"/>
     <use xlink:href="#DejaVuSans-2d" x="654.833984"/>
     <use xlink:href="#DejaVuSans-63" x="690.917969"/>
     <use xlink:href="#DejaVuSans-6f" x="745.898438"/>
     <use xlink:href="#DejaVuSans-73" x="807.080078"/>
     <use xlink:href="#DejaVuSans-74" x="859.179688"/>
     <use xlink:href="#DejaVuSans-20" x="898.388672"/>
     <use xlink:href="#DejaVuSans-2192" x="930.175781"/>
     <use xlink:href="#DejaVuSans-20" x="1013.964844"/>
     <use xlink:href="#DejaVuSans-6d" x="1045.751953"/>
     <use xlink:href="#DejaVuSans-6f" x="1143.164062"/>
     <use xlink:href="#DejaVuSans-72" x="1204.345703"/>
     <use xlink:href="#DejaVuSans-65" x="1243.208984"/>
     <use xlink:href="#DejaVuSans-20" x="1304.732422"/>
     <use xlink:href="#DejaVuSans-65" x="1336.519531"/>
     <use xlink:href="#DejaVuSans-6e" x="1398.042969"/>
     <use xlink:href="#DejaVuSans-74" x="1461.421875"/>
     <use xlink:href="#DejaVuSans-72" x="1500.630859"/>
     <use xlink:href="#DejaVuSans-61" x="1541.744141"/>
     <use xlink:href="#DejaVuSans-6e" x="1603.023438"/>
     <use xlink:href="#DejaVuSans-74" x="1666.402344"/>
     <use xlink:href="#DejaVuSans-73" x="1705.611328"/>
    </g>
    <!-- Where does the next complexity moat emerge? -->
    <g transform="translate(143.821172 98.445309) scale(0.11 -0.11)">
     <defs>
      <path id="DejaVuSans-57" d="M 213 4666 
L 850 4666 
L 1831 722 
L 2809 4666 
L 3519 4666 
L 4500 722 
L 5478 4666 
L 6119 4666 
L 4947 0 
L 4153 0 
L 3169 4050 
L 2175 0 
L 1381 0 
L 213 4666 
z
" transform="scale(0.015625)"/>
      <path id="DejaVuSans-68" d="M 3513 2113 
L 3513 0 
L 2938 0 
L 2938 2094 
Q 2938 2591 2744 2837 
Q 2550 3084 2163 3084 
Q 1697 3084 1428 2787 
Q 1159 2491 1159 1978 
L 1159 0 
L 581 0 
L 581 4863 
L 1159 4863 
L 1159 2956 
Q 1366 3272 1645 3428 
Q 1925 3584 2291 3584 
Q 2894 3584 3203 3211 
Q 3513 2838 3513 2113 
z
" transform="scale(0.015625)"/>
      <path id="DejaVuSans-64" d="M 2906 2969 
L 2906 4863 
L 3481 4863 
L 3481 0 
L 2906 0 
L 2906 525 
Q 2725 213 2448 61 
Q 2172 -91 1784 -91 
Q 1150 -91 751 415 
Q 353 922 353 1747 
Q 353 2572 751 3078 
Q 1150 3584 1784 3584 
Q 2172 3584 2448 3432 
Q 2725 3281 2906 2969 
z
M 947 1747 
Q 947 1113 1208 752 
Q 1469 391 1925 391 
Q 2381 391 2643 752 
Q 2906 1113 2906 1747 
Q 2906 2381 2643 2742 
Q 2381 3103 1925 3103 
Q 1469 3103 1208 2742 
Q 947 2381 947 1747 
z
" transform="scale(0.015625)"/>
      <path id="DejaVuSans-78" d="M 3513 3500 
L 2247 1797 
L 3578 0 
L 2900 0 
L 1881 1375 
L 863 0 
L 184 0 
L 1544 1831 
L 300 3500 
L 978 3500 
L 1906 2253 
L 2834 3500 
L 3513 3500 
z
" transform="scale(0.015625)"/>
      <path id="DejaVuSans-70" d="M 1159 525 
L 1159 -1331 
L 581 -1331 
L 581 3500 
L 1159 3500 
L 1159 2969 
Q 1341 3281 1617 3432 
Q 1894 3584 2278 3584 
Q 2916 3584 3314 3078 
Q 3713 2572 3713 1747 
Q 3713 922 3314 415 
Q 2916 -91 2278 -91 
Q 1894 -91 1617 61 
Q 1341 213 1159 525 
z
M 3116 1747 
Q 3116 2381 2855 2742 
Q 2594 3103 2138 3103 
Q 1681 3103 1420 2742 
Q 1159 2381 1159 1747 
Q 1159 1113 1420 752 
Q 1681 391 2138 391 
Q 2594 391 2855 752 
Q 3116 1113 3116 1747 
z
" transform="scale(0.015625)"/>
      <path id="DejaVuSans-69" d="M 603 3500 
L 1178 3500 
L 1178 0 
L 603 0 
L 603 3500 
z
M 603 4863 
L 1178 4863 
L 1178 4134 
L 603 4134 
L 603 4863 
z
" transform="scale(0.015625)"/>
      <path id="DejaVuSans-79" d="M 2059 -325 
Q 1816 -950 1584 -1140 
Q 1353 -1331 966 -1331 
L 506 -1331 
L 506 -850 
L 844 -850 
Q 1081 -850 1212 -737 
Q 1344 -625 1503 -206 
L 1606 56 
L 191 3500 
L 800 3500 
L 1894 763 
L 2988 3500 
L 3597 3500 
L 2059 -325 
z
" transform="scale(0.015625)"/>
      <path id="DejaVuSans-67" d="M 2906 1791 
Q 2906 2416 2648 2759 
Q 2391 3103 1925 3103 
Q 1463 3103 1205 2759 
Q 947 2416 947 1791 
Q 947 1169 1205 825 
Q 1463 481 1925 481 
Q 2391 481 2648 825 
Q 2906 1169 2906 1791 
z
M 3481 434 
Q 3481 -459 3084 -895 
Q 2688 -1331 1869 -1331 
Q 1566 -1331 1297 -1286 
Q 1028 -1241 775 -1147 
L 775 -588 
Q 1028 -725 1275 -790 
Q 1522 -856 1778 -856 
Q 2344 -856 2625 -561 
Q 2906 -266 2906 331 
L 2906 616 
Q 2728 306 2450 153 
Q 2172 0 1784 0 
Q 1141 0 747 490 
Q 353 981 353 1791 
Q 353 2603 747 3093 
Q 1141 3584 1784 3584 
Q 2172 3584 2450 3431 
Q 2728 3278 2906 2969 
L 2906 3500 
L 3481 3500 
L 3481 434 
z
" transform="scale(0.015625)"/>
      <path id="DejaVuSans-3f" d="M 1222 794 
L 1856 794 
L 1856 0 
L 1222 0 
L 1222 794 
z
M 1838 1253 
L 1241 1253 
L 1241 1734 
Q 1241 2050 1328 2253 
Q 1416 2456 1697 2725 
L 1978 3003 
Q 2156 3169 2236 3316 
Q 2316 3463 2316 3616 
Q 2316 3894 2111 4066 
Q 1906 4238 1569 4238 
Q 1322 4238 1042 4128 
Q 763 4019 459 3809 
L 459 4397 
Q 753 4575 1054 4662 
Q 1356 4750 1678 4750 
Q 2253 4750 2601 4447 
Q 2950 4144 2950 3647 
Q 2950 3409 2837 3195 
Q 2725 2981 2444 2713 
L 2169 2444 
Q 2022 2297 1961 2214 
Q 1900 2131 1875 2053 
Q 1856 1988 1847 1894 
Q 1838 1800 1838 1638 
L 1838 1253 
z
" transform="scale(0.015625)"/>
     </defs>
     <use xlink:href="#DejaVuSans-57"/>
     <use xlink:href="#DejaVuSans-68" x="98.876953"/>
     <use xlink:href="#DejaVuSans-65" x="162.255859"/>
     <use xlink:href="#DejaVuSans-72" x="223.779297"/>
     <use xlink:href="#DejaVuSans-65" x="262.642578"/>
     <use xlink:href="#DejaVuSans-20" x="324.166016"/>
     <use xlink:href="#DejaVuSans-64" x="355.953125"/>
     <use xlink:href="#DejaVuSans-6f" x="419.429688"/>
     <use xlink:href="#DejaVuSans-65" x="480.611328"/>
     <use xlink:href="#DejaVuSans-73" x="542.134766"/>
     <use xlink:href="#DejaVuSans-20" x="594.234375"/>
     <use xlink:href="#DejaVuSans-74" x="626.021484"/>
     <use xlink:href="#DejaVuSans-68" x="665.230469"/>
     <use xlink:href="#DejaVuSans-65" x="728.609375"/>
     <use xlink:href="#DejaVuSans-20" x="790.132812"/>
     <use xlink:href="#DejaVuSans-6e" x="821.919922"/>
     <use xlink:href="#DejaVuSans-65" x="885.298828"/>
     <use xlink:href="#DejaVuSans-78" x="945.072266"/>
     <use xlink:href="#DejaVuSans-74" x="1004.251953"/>
     <use xlink:href="#DejaVuSans-20" x="1043.460938"/>
     <use xlink:href="#DejaVuSans-63" x="1075.248047"/>
     <use xlink:href="#DejaVuSans-6f" x="1130.228516"/>
     <use xlink:href="#DejaVuSans-6d" x="1191.410156"/>
     <use xlink:href="#DejaVuSans-70" x="1288.822266"/>
     <use xlink:href="#DejaVuSans-6c" x="1352.298828"/>
     <use xlink:href="#DejaVuSans-65" x="1380.082031"/>
     <use xlink:href="#DejaVuSans-78" x="1439.855469"/>
     <use xlink:href="#DejaVuSans-69" x="1499.035156"/>
     <use xlink:href="#DejaVuSans-74" x="1526.818359"/>
     <use xlink:href="#DejaVuSans-79" x="1566.027344"/>
     <use xlink:href="#DejaVuSans-20" x="1625.207031"/>
     <use xlink:href="#DejaVuSans-6d" x="1656.994141"/>
     <use xlink:href="#DejaVuSans-6f" x="1754.40625"/>
     <use xlink:href="#DejaVuSans-61" x="1815.587891"/>
     <use xlink:href="#DejaVuSans-74" x="1876.867188"/>
     <use xlink:href="#DejaVuSans-20" x="1916.076172"/>
     <use xlink:href="#DejaVuSans-65" x="1947.863281"/>
     <use xlink:href="#DejaVuSans-6d" x="2009.386719"/>
     <use xlink:href="#DejaVuSans-65" x="2106.798828"/>
     <use xlink:href="#DejaVuSans-72" x="2168.322266"/>
     <use xlink:href="#DejaVuSans-67" x="2207.685547"/>
     <use xlink:href="#DejaVuSans-65" x="2271.162109"/>
     <use xlink:href="#DejaVuSans-3f" x="2332.685547"/>
    </g>
   </g>
   <g id="text_2">
    <!-- Data rights &amp; provenance -->
    <g transform="translate(110.203125 199.509269) scale(0.1 -0.1)">
     <defs>
      <path id="DejaVuSans-44" d="M 1259 4147 
L 1259 519 
L 2022 519 
Q 2988 519 3436 956 
Q 3884 1394 3884 2338 
Q 3884 3275 3436 3711 
Q 2988 4147 2022 4147 
L 1259 4147 
z
M 628 4666 
L 1925 4666 
Q 3281 4666 3915 4102 
Q 4550 3538 4550 2338 
Q 4550 1131 3912 565 
Q 3275 0 1925 0 
L 628 0 
L 628 4666 
z
" transform="scale(0.015625)"/>
      <path id="DejaVuSans-26" d="M 1556 2509 
Q 1272 2256 1139 2004 
Q 1006 1753 1006 1478 
Q 1006 1022 1337 719 
Q 1669 416 2169 416 
Q 2466 416 2725 514 
Q 2984 613 3213 813 
L 1556 2509 
z
M 1997 2859 
L 3584 1234 
Q 3769 1513 3872 1830 
Q 3975 2147 3994 2503 
L 4575 2503 
Q 4538 2091 4375 1687 
Q 4213 1284 3922 891 
L 4794 0 
L 4006 0 
L 3559 459 
Q 3234 181 2878 45 
Q 2522 -91 2113 -91 
Q 1359 -91 881 339 
Q 403 769 403 1441 
Q 403 1841 612 2192 
Q 822 2544 1241 2853 
Q 1091 3050 1012 3245 
Q 934 3441 934 3628 
Q 934 4134 1281 4442 
Q 1628 4750 2203 4750 
Q 2463 4750 2720 4694 
Q 2978 4638 3244 4525 
L 3244 3956 
Q 2972 4103 2725 4179 
Q 2478 4256 2266 4256 
Q 1938 4256 1733 4082 
Q 1528 3909 1528 3634 
Q 1528 3475 1620 3314 
Q 1713 3153 1997 2859 
z
" transform="scale(0.015625)"/>
      <path id="DejaVuSans-76" d="M 191 3500 
L 800 3500 
L 1894 563 
L 2988 3500 
L 3597 3500 
L 2284 0 
L 1503 0 
L 191 3500 
z
" transform="scale(0.015625)"/>
     </defs>
     <use xlink:href="#DejaVuSans-44"/>
     <use xlink:href="#DejaVuSans-61" x="77.001953"/>
     <use xlink:href="#DejaVuSans-74" x="138.28125"/>
     <use xlink:href="#DejaVuSans-61" x="177.490234"/>
     <use xlink:href="#DejaVuSans-20" x="238.769531"/>
     <use xlink:href="#DejaVuSans-72" x="270.556641"/>
     <use xlink:href="#DejaVuSans-69" x="311.669922"/>
     <use xlink:href="#DejaVuSans-67" x="339.453125"/>
     <use xlink:href="#DejaVuSans-68" x="402.929688"/>
     <use xlink:href="#DejaVuSans-74" x="466.308594"/>
     <use xlink:href="#DejaVuSans-73" x="505.517578"/>
     <use xlink:href="#DejaVuSans-20" x="557.617188"/>
     <use xlink:href="#DejaVuSans-26" x="589.404297"/>
     <use xlink:href="#DejaVuSans-20" x="667.382812"/>
     <use xlink:href="#DejaVuSans-70" x="699.169922"/>
     <use xlink:href="#DejaVuSans-72" x="762.646484"/>
     <use xlink:href="#DejaVuSans-6f" x="801.509766"/>
     <use xlink:href="#DejaVuSans-76" x="862.691406"/>
     <use xlink:href="#DejaVuSans-65" x="921.871094"/>
     <use xlink:href="#DejaVuSans-6e" x="983.394531"/>
     <use xlink:href="#DejaVuSans-61" x="1046.773438"/>
     <use xlink:href="#DejaVuSans-6e" x="1108.052734"/>
     <use xlink:href="#DejaVuSans-63" x="1171.431641"/>
     <use xlink:href="#DejaVuSans-65" x="1226.412109"/>
    </g>
    <!-- (lineage, usage rights, auditability) -->
    <g transform="translate(86.892969 210.707081) scale(0.1 -0.1)">
     <defs>
      <path id="DejaVuSans-28" d="M 1984 4856 
Q 1566 4138 1362 3434 
Q 1159 2731 1159 2009 
Q 1159 1288 1364 580 
Q 1569 -128 1984 -844 
L 1484 -844 
Q 1016 -109 783 600 
Q 550 1309 550 2009 
Q 550 2706 781 3412 
Q 1013 4119 1484 4856 
L 1984 4856 
z
" transform="scale(0.015625)"/>
      <path id="DejaVuSans-2c" d="M 750 794 
L 1409 794 
L 1409 256 
L 897 -744 
L 494 -744 
L 750 256 
L 750 794 
z
" transform="scale(0.015625)"/>
      <path id="DejaVuSans-62" d="M 3116 1747 
Q 3116 2381 2855 2742 
Q 2594 3103 2138 3103 
Q 1681 3103 1420 2742 
Q 1159 2381 1159 1747 
Q 1159 1113 1420 752 
Q 1681 391 2138 391 
Q 2594 391 2855 752 
Q 3116 1113 3116 1747 
z
M 1159 2969 
Q 1341 3281 1617 3432 
Q 1894 3584 2278 3584 
Q 2916 3584 3314 3078 
Q 3713 2572 3713 1747 
Q 3713 922 3314 415 
Q 2916 -91 2278 -91 
Q 1894 -91 1617 61 
Q 1341 213 1159 525 
L 1159 0 
L 581 0 
L 581 4863 
L 1159 4863 
L 1159 2969 
z
" transform="scale(0.015625)"/>
      <path id="DejaVuSans-29" d="M 513 4856 
L 1013 4856 
Q 1481 4119 1714 3412 
Q 1947 2706 1947 2009 
Q 1947 1309 1714 600 
Q 1481 -109 1013 -844 
L 513 -844 
Q 928 -128 1133 580 
Q 1338 1288 1338 2009 
Q 1338 2731 1133 3434 
Q 928 4138 513 4856 
z
" transform="scale(0.015625)"/>
     </defs>
     <use xlink:href="#DejaVuSans-28"/>
     <use xlink:href="#DejaVuSans-6c" x="39.013672"/>
     <use xlink:href="#DejaVuSans-69" x="66.796875"/>
     <use xlink:href="#DejaVuSans-6e" x="94.580078"/>
     <use xlink:href="#DejaVuSans-65" x="157.958984"/>
     <use xlink:href="#DejaVuSans-61" x="219.482422"/>
     <use xlink:href="#DejaVuSans-67" x="280.761719"/>
     <use xlink:href="#DejaVuSans-65" x="344.238281"/>
     <use xlink:href="#DejaVuSans-2c" x="405.761719"/>
     <use xlink:href="#DejaVuSans-20" x="437.548828"/>
     <use xlink:href="#DejaVuSans-75" x="469.335938"/>
     <use xlink:href="#DejaVuSans-73" x="532.714844"/>
     <use xlink:href="#DejaVuSans-61" x="584.814453"/>
     <use xlink:href="#DejaVuSans-67" x="646.09375"/>
     <use xlink:href="#DejaVuSans-65" x="709.570312"/>
     <use xlink:href="#DejaVuSans-20" x="771.09375"/>
     <use xlink:href="#DejaVuSans-72" x="802.880859"/>
     <use xlink:href="#DejaVuSans-69" x="843.994141"/>
     <use xlink:href="#DejaVuSans-67" x="871.777344"/>
     <use xlink:href="#DejaVuSans-68" x="935.253906"/>
     <use xlink:href="#DejaVuSans-74" x="998.632812"/>
     <use xlink:href="#DejaVuSans-73" x="1037.841797"/>
     <use xlink:href="#DejaVuSans-2c" x="1089.941406"/>
     <use xlink:href="#DejaVuSans-20" x="1121.728516"/>
     <use xlink:href="#DejaVuSans-61" x="1153.515625"/>
     <use xlink:href="#DejaVuSans-75" x="1214.794922"/>
     <use xlink:href="#DejaVuSans-64" x="1278.173828"/>
     <use xlink:href="#DejaVuSans-69" x="1341.650391"/>
     <use xlink:href="#DejaVuSans-74" x="1369.433594"/>
     <use xlink:href="#DejaVuSans-61" x="1408.642578"/>
     <use xlink:href="#DejaVuSans-62" x="1469.921875"/>
     <use xlink:href="#DejaVuSans-69" x="1533.398438"/>
     <use xlink:href="#DejaVuSans-6c" x="1561.181641"/>
     <use xlink:href="#DejaVuSans-69" x="1588.964844"/>
     <use xlink:href="#DejaVuSans-74" x="1616.748047"/>
     <use xlink:href="#DejaVuSans-79" x="1655.957031"/>
     <use xlink:href="#DejaVuSans-29" x="1715.136719"/>
    </g>
   </g>
   <g id="text_3">
    <!-- Model risk &amp; evaluation -->
    <g transform="translate(463.868563 199.509269) scale(0.1 -0.1)">
     <defs>
      <path id="DejaVuSans-4d" d="M 628 4666 
L 1569 4666 
L 2759 1491 
L 3956 4666 
L 4897 4666 
L 4897 0 
L 4281 0 
L 4281 4097 
L 3078 897 
L 2444 897 
L 1241 4097 
L 1241 0 
L 628 0 
L 628 4666 
z
" transform="scale(0.015625)"/>
      <path id="DejaVuSans-6b" d="M 581 4863 
L 1159 4863 
L 1159 1991 
L 2875 3500 
L 3609 3500 
L 1753 1863 
L 3688 0 
L 2938 0 
L 1159 1709 
L 1159 0 
L 581 0 
L 581 4863 
z
" transform="scale(0.015625)"/>
     </defs>
     <use xlink:href="#DejaVuSans-4d"/>
     <use xlink:href="#DejaVuSans-6f" x="86.279297"/>
     <use xlink:href="#DejaVuSans-64" x="147.460938"/>
     <use xlink:href="#DejaVuSans-65" x="210.9375"/>
     <use xlink:href="#DejaVuSans-6c" x="272.460938"/>
     <use xlink:href="#DejaVuSans-20" x="300.244141"/>
     <use xlink:href="#DejaVuSans-72" x="332.03125"/>
     <use xlink:href="#DejaVuSans-69" x="373.144531"/>
     <use xlink:href="#DejaVuSans-73" x="400.927734"/>
     <use xlink:href="#DejaVuSans-6b" x="453.027344"/>
     <use xlink:href="#DejaVuSans-20" x="510.9375"/>
     <use xlink:href="#DejaVuSans-26" x="542.724609"/>
     <use xlink:href="#DejaVuSans-20" x="620.703125"/>
     <use xlink:href="#DejaVuSans-65" x="652.490234"/>
     <use xlink:href="#DejaVuSans-76" x="714.013672"/>
     <use xlink:href="#DejaVuSans-61" x="773.193359"/>
     <use xlink:href="#DejaVuSans-6c" x="834.472656"/>
     <use xlink:href="#DejaVuSans-75" x="862.255859"/>
     <use xlink:href="#DejaVuSans-61" x="925.634766"/>
     <use xlink:href="#DejaVuSans-74" x="986.914062"/>
     <use xlink:href="#DejaVuSans-69" x="1026.123047"/>
     <use xlink:href="#DejaVuSans-6f" x="1053.90625"/>
     <use xlink:href="#DejaVuSans-6e" x="1115.087891"/>
    </g>
    <!-- (tests, guardrails, explainability) -->
    <g transform="translate(441.817781 210.707081) scale(0.1 -0.1)">
     <use xlink:href="#DejaVuSans-28"/>
     <use xlink:href="#DejaVuSans-74" x="39.013672"/>
     <use xlink:href="#DejaVuSans-65" x="78.222656"/>
     <use xlink:href="#DejaVuSans-73" x="139.746094"/>
     <use xlink:href="#DejaVuSans-74" x="191.845703"/>
     <use xlink:href="#DejaVuSans-73" x="231.054688"/>
     <use xlink:href="#DejaVuSans-2c" x="283.154297"/>
     <use xlink:href="#DejaVuSans-20" x="314.941406"/>
     <use xlink:href="#DejaVuSans-67" x="346.728516"/>
     <use xlink:href="#DejaVuSans-75" x="410.205078"/>
     <use xlink:href="#DejaVuSans-61" x="473.583984"/>
     <use xlink:href="#DejaVuSans-72" x="534.863281"/>
     <use xlink:href="#DejaVuSans-64" x="574.226562"/>
     <use xlink:href="#DejaVuSans-72" x="637.703125"/>
     <use xlink:href="#DejaVuSans-61" x="678.816406"/>
     <use xlink:href="#DejaVuSans-69" x="740.095703"/>
     <use xlink:href="#DejaVuSans-6c" x="767.878906"/>
     <use xlink:href="#DejaVuSans-73" x="795.662109"/>
     <use xlink:href="#DejaVuSans-2c" x="847.761719"/>
     <use xlink:href="#DejaVuSans-20" x="879.548828"/>
     <use xlink:href="#DejaVuSans-65" x="911.335938"/>
     <use xlink:href="#DejaVuSans-78" x="971.109375"/>
     <use xlink:href="#DejaVuSans-70" x="1030.289062"/>
     <use xlink:href="#DejaVuSans-6c" x="1093.765625"/>
     <use xlink:href="#DejaVuSans-61" x="1121.548828"/>
     <use xlink:href="#DejaVuSans-69" x="1182.828125"/>
     <use xlink:href="#DejaVuSans-6e" x="1210.611328"/>
     <use xlink:href="#DejaVuSans-61" x="1273.990234"/>
     <use xlink:href="#DejaVuSans-62" x="1335.269531"/>
     <use xlink:href="#DejaVuSans-69" x="1398.746094"/>
     <use xlink:href="#DejaVuSans-6c" x="1426.529297"/>
     <use xlink:href="#DejaVuSans-69" x="1454.3125"/>
     <use xlink:href="#DejaVuSans-74" x="1482.095703"/>
     <use xlink:href="#DejaVuSans-79" x="1521.304688"/>
     <use xlink:href="#DejaVuSans-29" x="1580.484375"/>
    </g>
   </g>
   <g id="text_4">
    <!-- Personalization-at-scale -->
    <g transform="translate(115.178125 310.389269) scale(0.1 -0.1)">
     <defs>
      <path id="DejaVuSans-50" d="M 1259 4147 
L 1259 2394 
L 2053 2394 
Q 2494 2394 2734 2622 
Q 2975 2850 2975 3272 
Q 2975 3691 2734 3919 
Q 2494 4147 2053 4147 
L 1259 4147 
z
M 628 4666 
L 2053 4666 
Q 2838 4666 3239 4311 
Q 3641 3956 3641 3272 
Q 3641 2581 3239 2228 
Q 2838 1875 2053 1875 
L 1259 1875 
L 1259 0 
L 628 0 
L 628 4666 
z
" transform="scale(0.015625)"/>
      <path id="DejaVuSans-7a" d="M 353 3500 
L 3084 3500 
L 3084 2975 
L 922 459 
L 3084 459 
L 3084 0 
L 275 0 
L 275 525 
L 2438 3041 
L 353 3041 
L 353 3500 
z
" transform="scale(0.015625)"/>
     </defs>
     <use xlink:href="#DejaVuSans-50"/>
     <use xlink:href="#DejaVuSans-65" x="56.677734"/>
     <use xlink:href="#DejaVuSans-72" x="118.201172"/>
     <use xlink:href="#DejaVuSans-73" x="159.314453"/>
     <use xlink:href="#DejaVuSans-6f" x="211.414062"/>
     <use xlink:href="#DejaVuSans-6e" x="272.595703"/>
     <use xlink:href="#DejaVuSans-61" x="335.974609"/>
     <use xlink:href="#DejaVuSans-6c" x="397.253906"/>
     <use xlink:href="#DejaVuSans-69" x="425.037109"/>
     <use xlink:href="#DejaVuSans-7a" x="452.820312"/>
     <use xlink:href="#DejaVuSans-61" x="505.310547"/>
     <use xlink:href="#DejaVuSans-74" x="566.589844"/>
     <use xlink:href="#DejaVuSans-69" x="605.798828"/>
     <use xlink:href="#DejaVuSans-6f" x="633.582031"/>
     <use xlink:href="#DejaVuSans-6e" x="694.763672"/>
     <use xlink:href="#DejaVuSans-2d" x="758.142578"/>
     <use xlink:href="#DejaVuSans-61" x="794.226562"/>
     <use xlink:href="#DejaVuSans-74" x="855.505859"/>
     <use xlink:href="#DejaVuSans-2d" x="894.714844"/>
     <use xlink:href="#DejaVuSans-73" x="930.798828"/>
     <use xlink:href="#DejaVuSans-63" x="982.898438"/>
     <use xlink:href="#DejaVuSans-61" x="1037.878906"/>
     <use xlink:href="#DejaVuSans-6c" x="1099.158203"/>
     <use xlink:href="#DejaVuSans-65" x="1126.941406"/>
    </g>
    <!-- (mass-custom portfolios, tax/ESG/risk) -->
    <g transform="translate(78.555469 321.587081) scale(0.1 -0.1)">
     <defs>
      <path id="DejaVuSans-66" d="M 2375 4863 
L 2375 4384 
L 1825 4384 
Q 1516 4384 1395 4259 
Q 1275 4134 1275 3809 
L 1275 3500 
L 2222 3500 
L 2222 3053 
L 1275 3053 
L 1275 0 
L 697 0 
L 697 3053 
L 147 3053 
L 147 3500 
L 697 3500 
L 697 3744 
Q 697 4328 969 4595 
Q 1241 4863 1831 4863 
L 2375 4863 
z
" transform="scale(0.015625)"/>
      <path id="DejaVuSans-2f" d="M 1625 4666 
L 2156 4666 
L 531 -594 
L 0 -594 
L 1625 4666 
z
" transform="scale(0.015625)"/>
      <path id="DejaVuSans-45" d="M 628 4666 
L 3578 4666 
L 3578 4134 
L 1259 4134 
L 1259 2753 
L 3481 2753 
L 3481 2222 
L 1259 2222 
L 1259 531 
L 3634 531 
L 3634 0 
L 628 0 
L 628 4666 
z
" transform="scale(0.015625)"/>
      <path id="DejaVuSans-53" d="M 3425 4513 
L 3425 3897 
Q 3066 4069 2747 4153 
Q 2428 4238 2131 4238 
Q 1616 4238 1336 4038 
Q 1056 3838 1056 3469 
Q 1056 3159 1242 3001 
Q 1428 2844 1947 2747 
L 2328 2669 
Q 3034 2534 3370 2195 
Q 3706 1856 3706 1288 
Q 3706 609 3251 259 
Q 2797 -91 1919 -91 
Q 1588 -91 1214 -16 
Q 841 59 441 206 
L 441 856 
Q 825 641 1194 531 
Q 1563 422 1919 422 
Q 2459 422 2753 634 
Q 3047 847 3047 1241 
Q 3047 1584 2836 1778 
Q 2625 1972 2144 2069 
L 1759 2144 
Q 1053 2284 737 2584 
Q 422 2884 422 3419 
Q 422 4038 858 4394 
Q 1294 4750 2059 4750 
Q 2388 4750 2728 4690 
Q 3069 4631 3425 4513 
z
" transform="scale(0.015625)"/>
      <path id="DejaVuSans-47" d="M 3809 666 
L 3809 1919 
L 2778 1919 
L 2778 2438 
L 4434 2438 
L 4434 434 
Q 4069 175 3628 42 
Q 3188 -91 2688 -91 
Q 1594 -91 976 548 
Q 359 1188 359 2328 
Q 359 3472 976 4111 
Q 1594 4750 2688 4750 
Q 3144 4750 3555 4637 
Q 3966 4525 4313 4306 
L 4313 3634 
Q 3963 3931 3569 4081 
Q 3175 4231 2741 4231 
Q 1884 4231 1454 3753 
Q 1025 3275 1025 2328 
Q 1025 1384 1454 906 
Q 1884 428 2741 428 
Q 3075 428 3337 486 
Q 3600 544 3809 666 
z
" transform="scale(0.015625)"/>
     </defs>
     <use xlink:href="#DejaVuSans-28"/>
     <use xlink:href="#DejaVuSans-6d" x="39.013672"/>
     <use xlink:href="#DejaVuSans-61" x="136.425781"/>
     <use xlink:href="#DejaVuSans-73" x="197.705078"/>
     <use xlink:href="#DejaVuSans-73" x="249.804688"/>
     <use xlink:href="#DejaVuSans-2d" x="301.904297"/>
     <use xlink:href="#DejaVuSans-63" x="337.988281"/>
     <use xlink:href="#DejaVuSans-75" x="392.96875"/>
     <use xlink:href="#DejaVuSans-73" x="456.347656"/>
     <use xlink:href="#DejaVuSans-74" x="508.447266"/>
     <use xlink:href="#DejaVuSans-6f" x="547.65625"/>
     <use xlink:href="#DejaVuSans-6d" x="608.837891"/>
     <use xlink:href="#DejaVuSans-20" x="706.25"/>
     <use xlink:href="#DejaVuSans-70" x="738.037109"/>
     <use xlink:href="#DejaVuSans-6f" x="801.513672"/>
     <use xlink:href="#DejaVuSans-72" x="862.695312"/>
     <use xlink:href="#DejaVuSans-74" x="903.808594"/>
     <use xlink:href="#DejaVuSans-66" x="943.017578"/>
     <use xlink:href="#DejaVuSans-6f" x="978.222656"/>
     <use xlink:href="#DejaVuSans-6c" x="1039.404297"/>
     <use xlink:href="#DejaVuSans-69" x="1067.1875"/>
     <use xlink:href="#DejaVuSans-6f" x="1094.970703"/>
     <use xlink:href="#DejaVuSans-73" x="1156.152344"/>
     <use xlink:href="#DejaVuSans-2c" x="1208.251953"/>
     <use xlink:href="#DejaVuSans-20" x="1240.039062"/>
     <use xlink:href="#DejaVuSans-74" x="1271.826172"/>
     <use xlink:href="#DejaVuSans-61" x="1311.035156"/>
     <use xlink:href="#DejaVuSans-78" x="1372.314453"/>
     <use xlink:href="#DejaVuSans-2f" x="1431.494141"/>
     <use xlink:href="#DejaVuSans-45" x="1465.185547"/>
     <use xlink:href="#DejaVuSans-53" x="1528.369141"/>
     <use xlink:href="#DejaVuSans-47" x="1591.845703"/>
     <use xlink:href="#DejaVuSans-2f" x="1669.335938"/>
     <use xlink:href="#DejaVuSans-72" x="1703.027344"/>
     <use xlink:href="#DejaVuSans-69" x="1744.140625"/>
     <use xlink:href="#DejaVuSans-73" x="1771.923828"/>
     <use xlink:href="#DejaVuSans-6b" x="1824.023438"/>
     <use xlink:href="#DejaVuSans-29" x="1881.933594"/>
    </g>
   </g>
   <g id="text_5">
    <!-- Microstructure-aware execution -->
    <g transform="translate(443.656844 310.389269) scale(0.1 -0.1)">
     <use xlink:href="#DejaVuSans-4d"/>
     <use xlink:href="#DejaVuSans-69" x="86.279297"/>
     <use xlink:href="#DejaVuSans-63" x="114.0625"/>
     <use xlink:href="#DejaVuSans-72" x="169.042969"/>
     <use xlink:href="#DejaVuSans-6f" x="207.90625"/>
     <use xlink:href="#DejaVuSans-73" x="269.087891"/>
     <use xlink:href="#DejaVuSans-74" x="321.1875"/>
     <use xlink:href="#DejaVuSans-72" x="360.396484"/>
     <use xlink:href="#DejaVuSans-75" x="401.509766"/>
     <use xlink:href="#DejaVuSans-63" x="464.888672"/>
     <use xlink:href="#DejaVuSans-74" x="519.869141"/>
     <use xlink:href="#DejaVuSans-75" x="559.078125"/>
     <use xlink:href="#DejaVuSans-72" x="622.457031"/>
     <use xlink:href="#DejaVuSans-65" x="661.320312"/>
     <use xlink:href="#DejaVuSans-2d" x="722.84375"/>
     <use xlink:href="#DejaVuSans-61" x="758.927734"/>
     <use xlink:href="#DejaVuSans-77" x="820.207031"/>
     <use xlink:href="#DejaVuSans-61" x="901.994141"/>
     <use xlink:href="#DejaVuSans-72" x="963.273438"/>
     <use xlink:href="#DejaVuSans-65" x="1002.136719"/>
     <use xlink:href="#DejaVuSans-20" x="1063.660156"/>
     <use xlink:href="#DejaVuSans-65" x="1095.447266"/>
     <use xlink:href="#DejaVuSans-78" x="1155.220703"/>
     <use xlink:href="#DejaVuSans-65" x="1211.275391"/>
     <use xlink:href="#DejaVuSans-63" x="1272.798828"/>
     <use xlink:href="#DejaVuSans-75" x="1327.779297"/>
     <use xlink:href="#DejaVuSans-74" x="1391.158203"/>
     <use xlink:href="#DejaVuSans-69" x="1430.367188"/>
     <use xlink:href="#DejaVuSans-6f" x="1458.150391"/>
     <use xlink:href="#DejaVuSans-6e" x="1519.332031"/>
    </g>
    <!-- (RL/agentic TCA, best-ex proofs) -->
    <g transform="translate(442.167 321.587081) scale(0.1 -0.1)">
     <defs>
      <path id="DejaVuSans-52" d="M 2841 2188 
Q 3044 2119 3236 1894 
Q 3428 1669 3622 1275 
L 4263 0 
L 3584 0 
L 2988 1197 
Q 2756 1666 2539 1819 
Q 2322 1972 1947 1972 
L 1259 1972 
L 1259 0 
L 628 0 
L 628 4666 
L 2053 4666 
Q 2853 4666 3247 4331 
Q 3641 3997 3641 3322 
Q 3641 2881 3436 2590 
Q 3231 2300 2841 2188 
z
M 1259 4147 
L 1259 2491 
L 2053 2491 
Q 2509 2491 2742 2702 
Q 2975 2913 2975 3322 
Q 2975 3731 2742 3939 
Q 2509 4147 2053 4147 
L 1259 4147 
z
" transform="scale(0.015625)"/>
      <path id="DejaVuSans-4c" d="M 628 4666 
L 1259 4666 
L 1259 531 
L 3531 531 
L 3531 0 
L 628 0 
L 628 4666 
z
" transform="scale(0.015625)"/>
      <path id="DejaVuSans-54" d="M -19 4666 
L 3928 4666 
L 3928 4134 
L 2272 4134 
L 2272 0 
L 1638 0 
L 1638 4134 
L -19 4134 
L -19 4666 
z
" transform="scale(0.015625)"/>
      <path id="DejaVuSans-43" d="M 4122 4306 
L 4122 3641 
Q 3803 3938 3442 4084 
Q 3081 4231 2675 4231 
Q 1875 4231 1450 3742 
Q 1025 3253 1025 2328 
Q 1025 1406 1450 917 
Q 1875 428 2675 428 
Q 3081 428 3442 575 
Q 3803 722 4122 1019 
L 4122 359 
Q 3791 134 3420 21 
Q 3050 -91 2638 -91 
Q 1578 -91 968 557 
Q 359 1206 359 2328 
Q 359 3453 968 4101 
Q 1578 4750 2638 4750 
Q 3056 4750 3426 4639 
Q 3797 4528 4122 4306 
z
" transform="scale(0.015625)"/>
     </defs>
     <use xlink:href="#DejaVuSans-28"/>
     <use xlink:href="#DejaVuSans-52" x="39.013672"/>
     <use xlink:href="#DejaVuSans-4c" x="108.496094"/>
     <use xlink:href="#DejaVuSans-2f" x="164.208984"/>
     <use xlink:href="#DejaVuSans-61" x="197.900391"/>
     <use xlink:href="#DejaVuSans-67" x="259.179688"/>
     <use xlink:href="#DejaVuSans-65" x="322.65625"/>
     <use xlink:href="#DejaVuSans-6e" x="384.179688"/>
     <use xlink:href="#DejaVuSans-74" x="447.558594"/>
     <use xlink:href="#DejaVuSans-69" x="486.767578"/>
     <use xlink:href="#DejaVuSans-63" x="514.550781"/>
     <use xlink:href="#DejaVuSans-20" x="569.53125"/>
     <use xlink:href="#DejaVuSans-54" x="601.318359"/>
     <use xlink:href="#DejaVuSans-43" x="656.527344"/>
     <use xlink:href="#DejaVuSans-41" x="726.351562"/>
     <use xlink:href="#DejaVuSans-2c" x="794.759766"/>
     <use xlink:href="#DejaVuSans-20" x="826.546875"/>
     <use xlink:href="#DejaVuSans-62" x="858.333984"/>
     <use xlink:href="#DejaVuSans-65" x="921.810547"/>
     <use xlink:href="#DejaVuSans-73" x="983.333984"/>
     <use xlink:href="#DejaVuSans-74" x="1035.433594"/>
     <use xlink:href="#DejaVuSans-2d" x="1074.642578"/>
     <use xlink:href="#DejaVuSans-65" x="1110.726562"/>
     <use xlink:href="#DejaVuSans-78" x="1170.5"/>
     <use xlink:href="#DejaVuSans-20" x="1229.679688"/>
     <use xlink:href="#DejaVuSans-70" x="1261.466797"/>
     <use xlink:href="#DejaVuSans-72" x="1324.943359"/>
     <use xlink:href="#DejaVuSans-6f" x="1363.806641"/>
     <use xlink:href="#DejaVuSans-6f" x="1424.988281"/>
     <use xlink:href="#DejaVuSans-66" x="1486.169922"/>
     <use xlink:href="#DejaVuSans-73" x="1521.375"/>
     <use xlink:href="#DejaVuSans-29" x="1573.474609"/>
    </g>
   </g>
   <g id="text_6">
    <!-- Next-level edge comes from industrializing these four domains. -->
    <g transform="translate(198.971719 417.721837) scale(0.09 -0.09)">
     <defs>
      <path id="DejaVuSans-4e" d="M 628 4666 
L 1478 4666 
L 3547 763 
L 3547 4666 
L 4159 4666 
L 4159 0 
L 3309 0 
L 1241 3903 
L 1241 0 
L 628 0 
L 628 4666 
z
" transform="scale(0.015625)"/>
      <path id="DejaVuSans-2e" d="M 684 794 
L 1344 794 
L 1344 0 
L 684 0 
L 684 794 
z
" transform="scale(0.015625)"/>
     </defs>
     <use xlink:href="#DejaVuSans-4e"/>
     <use xlink:href="#DejaVuSans-65" x="74.804688"/>
     <use xlink:href="#DejaVuSans-78" x="134.578125"/>
     <use xlink:href="#DejaVuSans-74" x="193.757812"/>
     <use xlink:href="#DejaVuSans-2d" x="232.966797"/>
     <use xlink:href="#DejaVuSans-6c" x="269.050781"/>
     <use xlink:href="#DejaVuSans-65" x="296.833984"/>
     <use xlink:href="#DejaVuSans-76" x="358.357422"/>
     <use xlink:href="#DejaVuSans-65" x="417.537109"/>
     <use xlink:href="#DejaVuSans-6c" x="479.060547"/>
     <use xlink:href="#DejaVuSans-20" x="506.84375"/>
     <use xlink:href="#DejaVuSans-65" x="538.630859"/>
     <use xlink:href="#DejaVuSans-64" x="600.154297"/>
     <use xlink:href="#DejaVuSans-67" x="663.630859"/>
     <use xlink:href="#DejaVuSans-65" x="727.107422"/>
     <use xlink:href="#DejaVuSans-20" x="788.630859"/>
     <use xlink:href="#DejaVuSans-63" x="820.417969"/>
     <use xlink:href="#DejaVuSans-6f" x="875.398438"/>
     <use xlink:href="#DejaVuSans-6d" x="936.580078"/>
     <use xlink:href="#DejaVuSans-65" x="1033.992188"/>
     <use xlink:href="#DejaVuSans-73" x="1095.515625"/>
     <use xlink:href="#DejaVuSans-20" x="1147.615234"/>
     <use xlink:href="#DejaVuSans-66" x="1179.402344"/>
     <use xlink:href="#DejaVuSans-72" x="1214.607422"/>
     <use xlink:href="#DejaVuSans-6f" x="1253.470703"/>
     <use xlink:href="#DejaVuSans-6d" x="1314.652344"/>
     <use xlink:href="#DejaVuSans-20" x="1412.064453"/>
     <use xlink:href="#DejaVuSans-69" x="1443.851562"/>
     <use xlink:href="#DejaVuSans-6e" x="1471.634766"/>
     <use xlink:href="#DejaVuSans-64" x="1535.013672"/>
     <use xlink:href="#DejaVuSans-75" x="1598.490234"/>
     <use xlink:href="#DejaVuSans-73" x="1661.869141"/>
     <use xlink:href="#DejaVuSans-74" x="1713.96875"/>
     <use xlink:href="#DejaVuSans-72" x="1753.177734"/>
     <use xlink:href="#DejaVuSans-69" x="1794.291016"/>
     <use xlink:href="#DejaVuSans-61" x="1822.074219"/>
     <use xlink:href="#DejaVuSans-6c" x="1883.353516"/>
     <use xlink:href="#DejaVuSans-69" x="1911.136719"/>
     <use xlink:href="#DejaVuSans-7a" x="1938.919922"/>
     <use xlink:href="#DejaVuSans-69" x="1991.410156"/>
     <use xlink:href="#DejaVuSans-6e" x="2019.193359"/>
     <use xlink:href="#DejaVuSans-67" x="2082.572266"/>
     <use xlink:href="#DejaVuSans-20" x="2146.048828"/>
     <use xlink:href="#DejaVuSans-74" x="2177.835938"/>
     <use xlink:href="#DejaVuSans-68" x="2217.044922"/>
     <use xlink:href="#DejaVuSans-65" x="2280.423828"/>
     <use xlink:href="#DejaVuSans-73" x="2341.947266"/>
     <use xlink:href="#DejaVuSans-65" x="2394.046875"/>
     <use xlink:href="#DejaVuSans-20" x="2455.570312"/>
     <use xlink:href="#DejaVuSans-66" x="2487.357422"/>
     <use xlink:href="#DejaVuSans-6f" x="2522.5625"/>
     <use xlink:href="#DejaVuSans-75" x="2583.744141"/>
     <use xlink:href="#DejaVuSans-72" x="2647.123047"/>
     <use xlink:href="#DejaVuSans-20" x="2688.236328"/>
     <use xlink:href="#DejaVuSans-64" x="2720.023438"/>
     <use xlink:href="#DejaVuSans-6f" x="2783.5"/>
     <use xlink:href="#DejaVuSans-6d" x="2844.681641"/>
     <use xlink:href="#DejaVuSans-61" x="2942.09375"/>
     <use xlink:href="#DejaVuSans-69" x="3003.373047"/>
     <use xlink:href="#DejaVuSans-6e" x="3031.15625"/>
     <use xlink:href="#DejaVuSans-73" x="3094.535156"/>
     <use xlink:href="#DejaVuSans-2e" x="3146.634766"/>
    </g>
   </g>
  </g>
 </g>
 <defs>
  <clipPath id="p09e9316281">
   <rect x="7.2" y="7.2" width="669.6" height="443.52"/>
  </clipPath>
 </defs>
</svg>
